<svg width="24" height="24" viewBox="0 0 24 24" fill="none" xmlns="http://www.w3.org/2000/svg">
<path d="M0.288471 14.126L3.6144 19.1499C3.70129 19.2811 3.80465 19.397 3.91984 19.4969L2.45926 22.0606C2.1096 22.6743 2.31224 23.4653 2.91109 23.8238C3.51018 24.1822 4.28172 23.9742 4.63125 23.3606L6.60122 19.9027H10.6662V23.2156C10.6662 23.648 11.0094 23.9998 11.4312 23.9998H11.982C12.4038 23.9998 12.747 23.648 12.747 23.2156V19.9027H14.6777C14.8672 19.9027 15.0207 19.7454 15.0207 19.5512C15.0207 19.357 14.8672 19.1996 14.6777 19.1996C14.5394 19.1996 5.22489 19.1996 5.00062 19.1996C4.67908 19.1996 4.36975 19.0385 4.18207 18.755L0.85614 13.7312C0.54987 13.2686 0.667904 12.6367 1.11933 12.3228C1.57819 12.0036 2.19132 12.1366 2.49329 12.5925L5.24135 16.7436C5.41998 17.0134 5.7172 17.1718 6.02973 17.1718H19.1503C19.4866 17.1718 19.7967 17.3443 19.9799 17.6334L22.5607 21.7054C22.8563 22.1718 22.7463 22.8029 22.3155 23.1124C21.8528 23.4446 21.2209 23.314 20.9173 22.835L18.8951 19.6443C18.7186 19.366 18.4199 19.1998 18.0961 19.1998H16.2784C16.0889 19.1998 15.9354 19.3571 15.9354 19.5513C15.9354 19.7455 16.0889 19.9029 16.2784 19.9029H18.0961C18.1868 19.9029 18.2704 19.9494 18.3198 20.0273L20.3421 23.218C20.8594 24.0344 21.9316 24.2465 22.7091 23.6882C23.439 23.164 23.6305 22.1026 23.1359 21.3224L20.5552 17.2504C20.245 16.7609 19.7199 16.4686 19.1504 16.4686H12.747V14.5132C12.747 14.319 12.5934 14.1616 12.404 14.1616C12.2145 14.1616 12.061 14.319 12.061 14.5132V16.4686H11.3522V10.9269C11.3689 10.9278 11.4304 10.9292 11.4334 10.9292H11.9797C11.9832 10.9292 12.0438 10.9278 12.061 10.9269V12.8725C12.061 13.0667 12.2145 13.2241 12.404 13.2241C12.5934 13.2241 12.7469 13.0667 12.7469 12.8725V10.7054C12.8795 10.6212 12.998 10.5159 13.098 10.394C13.3662 10.7209 13.7679 10.9291 14.2162 10.9291H14.7626C15.2109 10.9291 15.6126 10.7209 15.8808 10.394C16.1491 10.7209 16.5507 10.9291 16.9991 10.9291H17.5454C18.3512 10.9291 19.0067 10.2572 19.0067 9.43134V9.07344C19.0067 5.30948 16.2812 2.18625 12.7469 1.66702V1.0664C12.7469 0.478406 12.2801 0 11.7065 0C11.1328 0 10.6661 0.478406 10.6661 1.0664V1.66706C7.13191 2.18625 4.40634 5.30948 4.40634 9.07344V9.43134C4.40634 10.2572 5.06185 10.9291 5.86758 10.9291H6.4139C6.86229 10.9291 7.26391 10.7209 7.53218 10.394C7.80046 10.7209 8.20214 10.9291 8.65047 10.9291H9.19679C9.64512 10.9291 10.0468 10.7209 10.3151 10.394C10.4151 10.5159 10.5335 10.6212 10.6661 10.7054V16.4686H7.08391C7.24471 16.097 7.20871 15.6667 6.98376 15.3269C6.58828 14.7295 5.96557 13.7955 5.00208 12.3402C4.44694 11.5015 3.38616 11.2568 2.55118 11.6981C2.01617 11.3618 1.30559 11.3433 0.734032 11.741C-0.0302791 12.2726 -0.230173 13.3426 0.288471 14.126ZM11.3522 19.9028H12.061V23.2156C12.061 23.2604 12.0256 23.2967 11.982 23.2967H11.4312C11.3876 23.2967 11.3522 23.2604 11.3522 23.2156V19.9028ZM4.52354 19.8315C4.66934 19.8758 4.83941 19.9028 5.00062 19.9028H5.80694L4.03893 23.006C3.87996 23.285 3.5292 23.3795 3.25701 23.2166C2.98481 23.0536 2.89271 22.6941 3.05167 22.4151L4.52354 19.8315ZM15.5379 9.43134C15.5379 9.86952 15.1902 10.226 14.7626 10.226H14.2164C13.7992 10.226 13.441 9.88254 13.441 9.42504H15.538L15.5379 9.43134ZM18.3208 9.43134C18.3208 9.86952 17.973 10.226 17.5455 10.226H16.9992C16.5717 10.226 16.2239 9.86952 16.2239 9.43134V9.42504H18.3208V9.43134ZM18.312 8.7219H16.219C16.1685 6.88572 15.7233 5.16708 14.9524 3.85003C14.7129 3.44095 14.4498 3.08348 14.1678 2.7809C16.4988 3.74231 18.177 6.02652 18.312 8.7219ZM14.3642 4.21186C15.0727 5.42227 15.4833 7.01262 15.5328 8.72196H13.4393C13.4225 6.92628 13.2776 5.24742 13.0268 3.96202C12.9075 3.35039 12.7733 2.86252 12.6209 2.49202C13.268 2.77706 13.8677 3.3638 14.3642 4.21186ZM11.3522 1.0664C11.3522 0.866112 11.5111 0.703128 11.7066 0.703128C11.902 0.703128 12.061 0.866112 12.061 1.0664V1.59952C11.9393 1.59347 11.8153 1.5907 11.7066 1.5907C11.615 1.5907 11.489 1.59272 11.3522 1.59952V1.0664ZM11.0244 4.28395C11.3131 2.69165 11.6344 2.35823 11.7066 2.3018C11.7788 2.35828 12.1 2.6918 12.3888 4.284C12.6094 5.50055 12.7374 7.06512 12.7534 8.72196H10.6599C10.6757 7.06506 10.8037 5.5005 11.0244 4.28395ZM7.18922 9.43134C7.18922 9.86952 6.84145 10.226 6.41396 10.226H5.86764C5.44015 10.226 5.09236 9.86952 5.09236 9.43134V9.42504H7.18928L7.18922 9.43134ZM7.19419 8.7219H5.10114C5.23619 6.02658 6.91433 3.74231 9.24537 2.78095C8.96335 3.08353 8.70028 3.441 8.46075 3.85008C7.68982 5.16708 7.24465 6.88572 7.19419 8.7219ZM9.97216 9.43134C9.97216 9.86952 9.62434 10.226 9.19685 10.226H8.65058C8.22303 10.226 7.87527 9.86952 7.87527 9.43134V9.42504H9.97222L9.97216 9.43134ZM10.3864 3.96197C10.1355 5.24738 9.9906 6.92622 9.9738 8.7219H7.8803C7.92988 7.01262 8.34046 5.42222 9.04898 4.21181C9.54537 3.36375 10.1452 2.77706 10.7923 2.49192C10.64 2.86252 10.5057 3.35039 10.3864 3.96197ZM10.6582 9.42504H12.7551C12.7551 9.8856 12.3914 10.226 11.9798 10.226H11.4335C11.0207 10.226 10.6582 9.88476 10.6582 9.42504ZM4.43455 12.7349C5.42071 14.2246 6.0148 15.1153 6.41624 15.7217C6.51494 15.8708 6.52477 16.0549 6.44247 16.2141C6.31521 16.4602 5.95737 16.5729 5.80893 16.3487L3.0845 12.2334C3.56697 12.0905 4.12326 12.2647 4.43455 12.7349Z" fill="black"/>
</svg>
